<?xml version="1.0" encoding="UTF-8"?>
<svg xmlns="http://www.w3.org/2000/svg" version="1.1" viewBox="0 0 96 96">
  <defs>
    <style>
      .cls-1 {
        fill: #2a9d8f;
      }

      .cls-2 {
        fill: #264653;
      }

      .cls-3 {
        fill: #e9c46a;
      }
    </style>
  </defs>
  <!-- Generator: Adobe Illustrator 28.6.0, SVG Export Plug-In . SVG Version: 1.2.0 Build 709)  -->
  <g>
    <g id="Layer_1">
      <path class="cls-2" d="M50,26c-.7,0-1.4.1-2,.4v-10.4h-10.4c.2-.6.4-1.3.4-2,0-3.3-2.7-6-6-6s-6,2.7-6,6,.1,1.4.4,2h-10.4v10.4c.6-.2,1.3-.4,2-.4,3.3,0,6,2.7,6,6s-2.7,6-6,6-1.4-.1-2-.4v10.4h10.4c-.2-.6-.4-1.3-.4-2,0-3.3,2.7-6,6-6s6,2.7,6,6-.1,1.4-.4,2h10.4v-10.4c.6.2,1.3.4,2,.4,3.3,0,6-2.7,6-6s-2.7-6-6-6Z"/>
      <path class="cls-1" d="M46,70c-3.6,0-6.4-3.1-6-6.8.2-1.7,1.3-3.2,2.7-4.1,2-1.3,3.7-1.2,5.2-.7v-10.4h-10.4c.5-1.5.6-3.3-.7-5.2-.9-1.4-2.5-2.5-4.1-2.7-3.7-.5-6.8,2.4-6.8,5.9s.1,1.4.4,2h-10.4v10.4c-1.5-.5-3.3-.6-5.2.7-1.4.9-2.5,2.5-2.7,4.1-.5,3.7,2.4,6.8,5.9,6.8s1.4-.1,2-.4v4.4c0,3.3,2.7,6,6,6h26v-10.4c-.6.2-1.3.4-2,.4Z"/>
      <path class="cls-3" d="M80,69.6c-.6.2-1.3.4-2,.4-3.3,0-6-2.7-6-6s2.7-6,6-6,1.4.1,2,.4v-10.4h-10.4c.2.6.4,1.3.4,2,0,3.3-2.7,6-6,6s-6-2.7-6-6,.1-1.4.4-2h-10.4v10.4c-.6-.2-1.3-.4-2-.4-3.3,0-6,2.7-6,6s2.7,6,6,6,1.4-.1,2-.4v10.4h10.4c-.2.6-.4,1.3-.4,2,0,3.3,2.7,6,6,6s6-2.7,6-6-.1-1.4-.4-2h10.4v-10.4Z"/>
      <path class="cls-1" d="M85.2,27.1c-2-1.3-3.7-1.2-5.2-.7v-4.4c0-3.3-2.7-6-6-6h-26v10.4c1.5-.5,3.3-.6,5.2.7,1.4.9,2.5,2.5,2.7,4.1.5,3.7-2.4,6.8-5.9,6.8s-1.4-.1-2-.4v10.4h10.4c-.5,1.5-.6,3.3.7,5.2.9,1.4,2.5,2.5,4.1,2.7,3.7.5,6.8-2.4,6.8-5.9s-.1-1.4-.4-2h10.4v-10.4c.6.2,1.3.4,2,.4,3.6,0,6.4-3.1,5.9-6.8-.2-1.7-1.3-3.2-2.7-4.1Z"/>
    </g>
  </g>
</svg>