<?xml version="1.0" encoding="UTF-8"?>
<svg xmlns="http://www.w3.org/2000/svg" version="1.1" viewBox="0 0 96 96">
  <defs>
    <style>
      .cls-1 {
        fill: #2a9d8f;
      }

      .cls-2 {
        fill: #264653;
      }

      .cls-3 {
        fill: #e9c46a;
      }
    </style>
  </defs>
  <!-- Generator: Adobe Illustrator 28.6.0, SVG Export Plug-In . SVG Version: 1.2.0 Build 709)  -->
  <g>
    <g id="Layer_1">
      <path class="cls-1" d="M66,35c0,2.9-2.1,5.5-5,5.9-3.3.5-7.9,1-13,1s-9.7-.5-13-1c-2.9-.5-5-3-5-5.9v-14.1c0-2.9,2.1-5.5,5-5.9,3.3-.5,7.9-1,13-1s9.7.5,13,1c2.9.5,5,3,5,5.9v14.1Z"/>
      <path class="cls-2" d="M22,88h18c2.2,0,4-1.8,4-4v-8h-14c-4.4,0-8,3.6-8,8v4Z"/>
      <path class="cls-2" d="M74,88h-18c-2.2,0-4-1.8-4-4v-8h14c4.4,0,8,3.6,8,8v4Z"/>
      <path class="cls-2" d="M30,21c0-.6.1-1.1.3-1.7-2.2-2-5.1-3.3-8.3-3.3-6.6,0-12,5.4-12,12s5.4,12,12,12,5.9-1.2,8-3.1v-16Z"/>
      <path class="cls-2" d="M66,21c0-.6-.1-1.1-.3-1.7,2.2-2,5.1-3.3,8.3-3.3,6.6,0,12,5.4,12,12s-5.4,12-12,12-5.9-1.2-8-3.1v-16Z"/>
      <path class="cls-2" d="M35.2,42.3c-2.4,1.2-9.9,6.1-11.1,21.3-.2,2.3,1.6,4.4,4,4.4h3.9c.1-9.6.7-18.2,3.2-25.7Z"/>
      <path class="cls-2" d="M64,68h3.9c2.3,0,4.2-2,4-4.4-1.2-15.2-8.7-20.1-11.1-21.3,2.5,7.5,3.1,16,3.2,25.7Z"/>
      <path class="cls-3" d="M48,42c-2.3,0-4.5-.1-6.6-.3-.9,2.8-2.5,8.9-3.1,18-.3,4.5,3.2,8.3,7.7,8.3h4c4.5,0,8-3.8,7.7-8.3-.7-9.1-2.3-15.2-3.1-18-2,.2-4.3.3-6.6.3Z"/>
      <path class="cls-1" d="M60.4,41.1c-1.7.2-3.6.5-5.8.7h0c.9,2.8,2.5,8.9,3.1,18,.3,4.5-3.2,8.3-7.7,8.3h-4c-4.5,0-8-3.8-7.7-8.3.7-9.1,2.3-15.2,3.1-18h0c-2.2-.2-4.1-.4-5.8-.7-3.6,9.8-3.6,21.4-3.6,34.9h32c0-13.5,0-25.2-3.6-34.9Z"/>
      <circle class="cls-2" cx="40" cy="26" r="4"/>
      <circle class="cls-2" cx="56" cy="26" r="4"/>
      <path class="cls-2" d="M52,34h-8s0,4,4,4,4-4,4-4Z"/>
    </g>
  </g>
</svg>